<svg width="800" height="700" viewBox="0 0 934 782" fill="none" xmlns="http://www.w3.org/2000/svg">
<path fill-rule="evenodd" clip-rule="evenodd" d="M695.939 145.744C686.053 151.748 676.339 154.649 671.779 153.465C660.346 150.495 659.294 108.351 668.141 91.7358C676.988 75.121 722.468 67.8792 724.76 100.798C725.556 112.224 720.794 122.42 713.76 130.74L726.373 189.977H689.733L695.939 145.744Z" fill="#B28B67"/>
<path fill-rule="evenodd" clip-rule="evenodd" d="M676.398 80.7797C677.237 80.275 678.993 79.2104 679.883 78.8246C680.093 78.7317 681.567 77.6722 681.607 77.6857C682.722 78.065 685.954 79.4655 686.231 80.6757C686.274 80.7674 686.316 80.8534 686.358 80.9286C686.815 81.7673 687.236 82.6269 687.636 83.4968C688.516 85.4066 689.275 87.4026 690 89.3829C691.412 93.2396 692.639 97.1861 693.767 101.142C694.916 105.168 695.891 109.242 696.982 113.285C698.552 119.103 700.561 124.779 702.121 130.594C703.116 134.308 703.67 138.065 703.409 141.887C703.406 141.933 703.405 141.978 703.401 142.025C703.399 142.044 703.397 142.063 703.395 142.082C703.351 142.67 703.287 143.259 703.203 143.849C703.129 144.354 703.055 144.861 702.975 145.368C701.551 142.507 700.464 139.353 699.31 136.36C699.197 136.067 699.089 135.772 698.984 135.476C698.612 134.869 698.232 134.267 697.849 133.666C695.429 129.881 693.001 126.109 690.681 122.255C686.508 115.323 682.374 108.244 677.427 101.879C675.966 99.9992 674.471 98.1483 673.029 96.2532C672.208 95.1748 671.408 94.0784 670.635 92.9624C670.082 92.1644 667.677 89.3829 668.548 87.7117C668.993 86.8566 674.221 82.0891 676.398 80.7797Z" fill="#2C2C2C"/>
<path fill-rule="evenodd" clip-rule="evenodd" d="M679.618 78.9641C678.801 79.2405 679.199 77.5292 679.989 76.9271C683.651 74.1373 697.653 73.1249 709.837 75.6734C717.999 77.3806 727.492 81.6299 734.012 87.0926C739.889 92.0173 743.931 99.9119 746.012 107.539C748.197 115.548 748.528 123.898 747.31 132.111C747.043 133.915 746.468 135.634 746.148 137.4C745.788 139.388 745.603 141.303 744.96 143.237C744.566 144.421 743.897 145.583 743.562 146.774C743.178 148.133 743.412 149.39 743.691 150.773C744.147 153.026 744.712 155.275 745.515 157.427C746.72 160.658 748.183 163.685 749.1 167.038C750.321 171.5 755.426 186.02 751.695 189.977H680.677C682.465 185.062 687.833 179.278 688.919 174.016C689.56 170.917 689.864 164.148 689.931 163.902C691.531 152.786 694.656 147.478 696.614 145.552C698.571 143.625 701.177 143.033 701.312 141.362C701.867 134.45 699.139 127.828 697.139 121.378C694.756 113.691 693.009 105.812 690.551 98.1508C689.463 94.7581 683.855 77.5292 679.618 78.9641Z" fill="#8991DC"/>
<path fill-rule="evenodd" clip-rule="evenodd" d="M707.196 111.746C707.772 100.047 707.196 95.4768 704.518 86.915H706.169C708.779 90.3129 710.964 100.706 708.509 111.746H707.196ZM739.558 111.194C739.846 110.484 740.141 109.757 740.446 109.011L741.496 109.519C738.183 121.726 734.155 131.15 720.32 139.05L719.244 138.291C732.328 129.021 735.134 122.103 739.558 111.194ZM719.54 99.69L719.54 99.691C717.551 115.156 716.29 124.963 705.204 142.75L706.46 143.137C718.613 126.642 720.54 113.179 721.114 96.6893L719.941 96.5941C719.802 97.6526 719.67 98.6833 719.54 99.69ZM731.91 146.723L732.985 148.039C727.601 149.175 723.94 153.164 719.743 157.738C715.303 162.578 710.263 168.071 701.947 171.529L700.403 170.586C709.48 165.831 713.702 161.105 717.389 156.979C721.206 152.707 724.449 149.077 731.91 146.723Z" fill="black" fill-opacity="0.2"/>
<path fill-rule="evenodd" clip-rule="evenodd" d="M792.596 382.258H674.654L659.2 573H834.767L792.596 382.258Z" fill="#C5CFD6"/>
<path fill-rule="evenodd" clip-rule="evenodd" d="M792.596 382.258H756.322L734.612 573H834.767L792.596 382.258Z" fill="black" fill-opacity="0.1"/>
<path fill-rule="evenodd" clip-rule="evenodd" d="M609.853 420.047C623.107 448.369 643.816 517.119 643.816 517.119L626.234 525.213C626.234 525.213 581.624 452.944 554.36 403.541C555.631 414.663 556.924 427.184 558.123 440.346C560.964 471.527 558.125 538.892 556.596 558.352C555.636 570.582 539.143 568.02 537.604 558.32C537.343 556.677 536.28 550.91 534.694 542.304C526.919 500.106 506.569 389.669 506.533 362.627C506.519 351.746 527.616 341.971 540.191 349.58C548.829 340.293 565.176 334.941 574.568 350.281C580.538 360.033 594.724 387.718 609.853 420.047Z" fill="#B28B67"/>
<path fill-rule="evenodd" clip-rule="evenodd" d="M642.559 491.666L582.214 347.628C567.758 324.197 527.226 352.396 532.156 365.986C543.348 396.839 600.271 496.725 603.606 505.917L642.559 491.666Z" fill="#1F28CF"/>
<path fill-rule="evenodd" clip-rule="evenodd" d="M642.062 507.743C642.738 506.78 644.078 506.552 644.979 507.299C647.418 509.316 651.788 513.129 653.247 515.676C655.312 519.279 658.081 526.885 658.081 526.885C653.933 529.299 583.511 570.265 583.511 570.265C583.511 570.265 575.056 562.274 580.876 557.858C586.696 553.443 590.482 550.411 590.482 550.411L616.539 514.239C616.87 513.779 617.512 513.685 617.957 514.03L623.736 518.514C623.736 518.514 631.095 517.867 634.72 515.759C637.227 514.3 640.366 510.158 642.062 507.743Z" fill="#E4E4E4"/>
<path fill-rule="evenodd" clip-rule="evenodd" d="M557.262 548.356C558.329 547.861 559.607 548.339 560.018 549.44C561.129 552.416 563.02 557.917 563.02 560.857C563.02 565.017 561.644 573 561.644 573C556.854 573 475.537 573 475.537 573C475.537 573 472.181 561.82 479.412 560.928C486.644 560.037 491.427 559.318 491.427 559.318L531.939 541.121C532.455 540.889 533.061 541.131 533.275 541.654L536.054 548.448C536.054 548.448 542.749 551.595 546.934 551.595C549.826 551.595 554.593 549.593 557.262 548.356Z" fill="#E4E4E4"/>
<path fill-rule="evenodd" clip-rule="evenodd" d="M502.304 373.694C502.304 414.561 521.565 509.886 521.578 518.885L563.02 518.917C563.02 518.917 553.921 391.33 556.567 389.956C559.213 388.581 665.038 400.601 696.777 400.601C742.544 400.601 761.477 371.522 763.013 317.652H672.35C653.89 319.642 557.602 339.21 521.843 345.937C506.533 348.817 502.304 362.437 502.304 373.694Z" fill="#2B44FF"/>
<path fill-rule="evenodd" clip-rule="evenodd" d="M834.159 386.731C829.685 377.586 807.333 259.89 807.333 259.89L773.903 260.016C773.903 260.016 812.095 384.692 814.45 390.573C817.509 398.212 812.313 409.311 808.789 416.838C808.244 418.002 807.738 419.081 807.31 420.048C812.2 422.252 814.548 419.588 817.025 416.779C819.821 413.606 822.781 410.248 829.747 413.514C832.439 414.776 834.985 416.267 837.474 417.725C846.069 422.759 853.965 427.383 864.706 420.705C866.409 419.647 868.275 415.66 863.766 412.545C852.534 404.785 836.346 391.202 834.159 386.731ZM552.607 340.872L595.854 298.362L610.218 323.405L565.246 350.12C553.97 368.018 547.348 375.751 545.378 373.32C543.718 371.27 544.479 369.023 545.18 366.953C545.726 365.341 546.236 363.837 545.536 362.617C543.937 359.83 534.908 361.426 526.405 363.309C517.901 365.193 519.868 360.984 521.676 358.787C529.713 352.252 540.023 346.28 552.607 340.872Z" fill="#B28B67"/>
<path fill-rule="evenodd" clip-rule="evenodd" d="M705.466 164.338L692.264 162.056C671.468 236.126 564.619 286.614 558.06 314.303C555.654 324.458 562.907 329.591 559.161 332.684L576.32 345.34C579.225 341.924 585.426 348.173 598.376 343.802C611.325 339.431 705.466 252.042 705.466 164.338Z" fill="#DB2721"/>
<path fill-rule="evenodd" clip-rule="evenodd" d="M731.047 148.726C733.25 148.571 735.161 150.231 735.314 152.435L736.088 163.593C760.932 182.857 822.508 240.421 838.554 347.581C840.24 358.838 837.191 364.867 834.756 369.684C833.09 372.98 831.71 375.708 832.329 379.155L809.872 385.401C809.872 382.856 807.042 380.92 803.391 378.422C798.081 374.79 791.036 369.971 788.431 360.365C785.961 351.259 782.345 339.886 778.025 327.234C777.617 343.99 774.464 359.4 767.593 372.163C750.453 404.007 651.401 369.085 641.052 336.6C635.53 319.265 643.366 304.712 653.729 285.465C666.883 261.032 684.111 229.036 683.259 174.185L682.01 156.191C681.857 153.987 683.52 152.074 685.724 151.919L731.047 148.726Z" fill="#FF4133"/>
<path fill-rule="evenodd" clip-rule="evenodd" d="M202.562 103.956C207.717 110.328 213.503 114.606 216.832 114.931C225.179 115.745 236.024 88.1344 234.116 74.9992C232.209 61.864 203.592 46.0254 194.139 67.2347C190.858 74.5957 191.583 82.4944 194.277 89.7048L171.6 125.808L196.06 134.711L202.562 103.956Z" fill="#57331F"/>
<path fill-rule="evenodd" clip-rule="evenodd" d="M240.779 65.7516C238.802 71.184 232.919 74.0684 227.443 72.3994C224.026 72.2273 219.825 71.485 215.34 70.1844C215.184 71.9345 214.755 73.8311 214.01 75.8793C213.352 77.6878 212.454 79.5331 211.376 81.3466C210.837 79.8744 209.835 78.6772 208.546 78.2081C204.941 76.8959 201.354 78.9423 200.21 82.085C198.758 86.0735 200.015 89.7987 203.299 91.2554C198.151 95.9617 192.364 98.8104 188.173 97.2851C180.213 94.3878 178.419 81.7066 182.575 70.287C182.721 69.8858 182.874 69.4901 183.034 69.1002C179.667 69.9649 176.29 71.4751 172.888 72.9962C165.66 76.2282 158.322 79.5093 150.746 76.7518C135.588 71.2347 140.674 38.5309 161.852 46.2391C176.255 51.4812 182.576 56.1555 187.554 61.4768C189.991 58.527 192.864 56.3469 195.834 55.1749C196.595 54.7647 197.634 54.4855 198.898 54.3361C199.681 54.2172 200.463 54.1727 201.237 54.2069C205.411 54.1967 211.091 55.1854 217.124 57.1461C218.251 57.5123 219.347 57.8986 220.408 58.3008C222.465 52.7046 228.672 49.8266 234.29 51.8713C239.918 53.92 242.824 60.1344 240.779 65.7516Z" fill="#191847"/>
<path fill-rule="evenodd" clip-rule="evenodd" d="M106.643 327.425C106.643 327.425 145.669 338.319 173.984 338.319C202.299 338.319 226.585 321.542 226.585 321.542C226.585 321.542 188.394 310.361 163.681 310.361C138.969 310.361 106.643 327.425 106.643 327.425Z" fill="#1F28CF"/>
<path fill-rule="evenodd" clip-rule="evenodd" d="M196.507 348.787C196.256 348.41 196.044 348.001 195.876 347.557C192.399 338.379 136.695 239.361 131.145 221.258H193.86C198.079 235.022 217.07 321.398 219.743 338.631C228.176 365.815 245.538 453.853 247.754 459.952C250.086 466.368 236.966 473.052 233.47 465.164C227.908 452.613 214.654 417.886 208.752 396.681C203.219 376.802 198.714 358.918 196.507 348.787Z" fill="#3D2216"/>
<path fill-rule="evenodd" clip-rule="evenodd" d="M145.198 360.876C119.731 367.3 26.5779 378.913 20.1853 380.734C13.6094 382.608 7.84356 369.08 15.9718 366.15C28.9052 361.488 64.5424 350.715 86.1495 346.319C103.529 342.782 119.388 339.897 130.035 338.207C129.133 308.359 125.01 236.728 127.712 221.258H183.203C180.612 236.093 158.704 344.342 154.632 355.177C153.339 359.045 149.484 360.755 145.198 360.876V360.876Z" fill="#57331F"/>
<path fill-rule="evenodd" clip-rule="evenodd" d="M18.32 365.122C18.6032 363.985 17.9123 362.811 16.7581 362.607C14.4787 362.202 10.9464 361.692 9.08594 362.02C6.1969 362.528 0.824001 364.464 0.824001 364.464C1.41496 367.809 11.4461 424.584 11.4461 424.584C11.4461 424.584 19.6231 425.561 19.35 420.403C19.0769 415.245 18.9857 411.818 18.9857 411.818L26.5512 381.597C26.6882 381.05 26.3458 380.498 25.7949 380.377L21.0285 379.331C21.0285 379.331 18.0175 375.042 17.5012 372.119C17.1781 370.291 17.8053 367.188 18.32 365.122Z" fill="#E4E4E4"/>
<path fill-rule="evenodd" clip-rule="evenodd" d="M232.326 462.858C231.257 462.384 229.985 462.859 229.582 463.957C228.787 466.127 227.67 469.512 227.67 471.399C227.67 474.326 228.647 479.943 228.647 479.943C232.05 479.943 289.817 479.943 289.817 479.943C289.817 479.943 292.202 472.076 287.064 471.449C281.927 470.822 278.529 470.316 278.529 470.316L250.017 457.631C249.503 457.402 248.902 457.643 248.687 458.163L246.826 462.667C246.826 462.667 242.07 464.882 239.097 464.882C237.234 464.882 234.275 463.723 232.326 462.858Z" fill="#E4E4E4"/>
<path fill-rule="evenodd" clip-rule="evenodd" d="M127.892 221.258C127.892 221.258 164.571 210.784 197.302 221.258C204.894 255.826 223.341 269.546 226.585 322.544C189.711 340.829 144.16 309.503 106.201 327.335C95.3553 302.393 110.539 242.325 127.892 221.258Z" fill="#2B44FF"/>
<path fill-rule="evenodd" clip-rule="evenodd" d="M288.798 205.683L246.381 212.149L254.35 230.893L288.607 216.758C303.505 217.96 310.689 217.488 310.161 215.343C309.716 213.534 308.125 213.013 306.66 212.533C305.519 212.158 304.454 211.809 304.066 210.896C303.179 208.81 307.935 204.375 312.628 200.36C317.322 196.344 314.111 195.674 312.101 195.766C304.987 197.546 297.219 200.852 288.798 205.683ZM112.018 185.614L91.6905 175.611C66.8704 210.005 52.5677 228.665 48.7823 231.591C46.0065 233.736 31.4814 237.286 21.9157 238.697C18.0761 239.263 18.0374 242.363 18.7978 243.561C23.5943 251.123 30.062 250.656 37.1024 250.148C39.1406 250.001 41.2268 249.85 43.3344 249.89C48.7895 249.993 49.6427 253.035 50.449 255.91C51.163 258.456 51.8401 260.87 55.6418 260.998C55.6668 260.253 55.6773 259.414 55.6885 258.509C55.7614 252.656 55.8688 244.025 60.1792 240.149C62.3913 238.16 79.671 219.981 112.018 185.614Z" fill="#57331F"/>
<path fill-rule="evenodd" clip-rule="evenodd" d="M192.98 116.841L202.454 117.718C217.067 142.106 212.822 190.153 224.344 199.751C235.237 208.825 254.349 207.99 277.307 206.099L279.89 222.122C255.35 237.572 210.15 244.069 196.37 229.754C174.339 206.866 183.438 148.642 192.98 116.841Z" fill="#DB2721"/>
<path fill-rule="evenodd" clip-rule="evenodd" d="M123.05 219.871C123.05 219.871 177.532 234.47 203.202 241.348C206.865 242.329 207.589 236.866 207.773 234.061C209.899 201.686 194.924 162.161 206.648 118.407L184.498 108.594C157.15 134.163 140.411 170.182 123.05 219.871Z" fill="#DDE3E9"/>
<path fill-rule="evenodd" clip-rule="evenodd" d="M183.27 108.265L183.006 108.194C122.604 126.191 78.0173 167.23 49.2472 231.313L65.1679 239.099C79.7641 229.141 99.1727 211.644 123.394 186.608C113.633 202.984 105.104 220.176 99.3577 237.054L171.507 256.387C194.914 224.902 192.16 110.647 192.16 110.647L187.179 109.312L183.27 108.265Z" fill="#FF4133"/>
<path fill-rule="evenodd" clip-rule="evenodd" d="M370.509 229.515C359.608 235.663 348.898 238.633 343.87 237.421C331.263 234.38 330.104 191.226 339.859 174.214C349.613 157.201 399.76 149.786 402.288 183.493C403.165 195.192 397.915 205.632 390.159 214.152L404.067 274.807H363.667L370.509 229.515Z" fill="#B28B67"/>
<path fill-rule="evenodd" clip-rule="evenodd" d="M368.489 187.216C364.994 182.347 361.64 178.634 357.275 176.477C339.514 176.74 337.435 173.761 337.435 163.719C340.304 161.798 350.426 158.564 361.761 157.654C367.544 156.106 374.394 156.397 380.993 158.98C389.139 161.143 396.036 165.8 399.083 174.52C410.106 192.319 401.74 210.848 390.465 217.177C387.463 213.85 384.844 210.626 382.507 207.54C384.385 205.824 385.55 203.429 385.55 200.779C385.55 195.56 381.028 191.329 375.45 191.329C375.04 191.329 374.636 191.351 374.238 191.396C373.987 197.921 372.954 219.999 370.241 227.668C367.042 236.709 348.376 238.929 341.865 238.929C336.242 238.929 336.434 233.947 336.571 230.376C336.591 229.862 336.61 229.377 336.61 228.94C336.61 228.028 337.878 228.03 339.31 228.033C341.171 228.036 343.309 228.04 343.309 226.043C343.309 223.866 340.093 222.196 337.216 220.702C335.421 219.77 333.758 218.906 333.089 218.03C330.979 215.266 330.268 211.538 333.452 211.538C335.192 211.538 337.579 212.477 340.452 213.606C344.788 215.311 350.229 217.451 356.217 217.451C366.107 217.451 368.46 187.591 368.489 187.216Z" fill="#191847"/>
<path fill-rule="evenodd" clip-rule="evenodd" d="M218.551 523.151C221.683 555.19 218.552 624.057 216.867 643.923C215.808 656.408 197.623 653.139 195.926 643.147C195.638 641.454 194.466 635.507 192.718 626.633C184.144 583.122 161.706 469.243 161.667 441.553C161.648 428.856 191.86 418.703 203.946 434.04C213.883 427.51 227.987 425.759 236.683 438.949C243.266 448.934 258.907 477.282 275.589 510.385C290.203 539.385 313.038 609.781 313.038 609.781L293.652 618.069C293.652 618.069 245.764 546.028 215.613 495.518C216.614 504.209 217.609 513.515 218.551 523.151Z" fill="#B28B67"/>
<path fill-rule="evenodd" clip-rule="evenodd" d="M311.652 583.719L245.114 436.232C229.174 412.24 184.482 441.114 189.918 455.03C202.259 486.622 265.024 588.899 268.701 598.311L311.652 583.719Z" fill="#1F28CF"/>
<path fill-rule="evenodd" clip-rule="evenodd" d="M159.983 453.068C159.983 494.873 179.567 593.139 179.58 602.344L227.02 600.847C227.02 600.847 214.581 472.693 216.529 471.824C219.451 470.522 336.292 486.955 371.335 488.196C421.866 489.986 442.77 460.979 444.467 405.933L346.585 405.933C346.585 405.933 221.038 419.955 181.556 425.438C164.653 427.786 159.983 441.552 159.983 453.068Z" fill="#2B44FF"/>
<path fill-rule="evenodd" clip-rule="evenodd" d="M275.643 573.258C284.249 571.25 293.069 576.545 295.344 585.084L303.394 615.294C305.67 623.832 300.538 632.382 291.933 634.389L259.966 641.847C251.361 643.855 242.54 638.56 240.265 630.022L232.215 599.811C229.94 591.273 235.071 582.723 243.677 580.716L275.643 573.258ZM278.983 587.141C281.134 586.639 283.339 587.963 283.908 590.097L290.781 615.891C291.35 618.025 290.067 620.163 287.916 620.665L256.626 627.964C254.475 628.466 252.27 627.142 251.701 625.008L244.828 599.214C244.259 597.08 245.542 594.942 247.693 594.44L278.983 587.141Z" fill="#C5CFD6"/>
<path fill-rule="evenodd" clip-rule="evenodd" d="M216.205 618.015C217.242 617.564 218.461 618.023 218.885 619.071C220.098 622.073 222.267 627.87 222.267 630.94C222.267 635.2 220.75 643.374 220.75 643.374C215.467 643.374 125.807 643.374 125.807 643.374C125.807 643.374 122.106 631.926 130.079 631.013C138.053 630.1 143.327 629.365 143.327 629.365L188.132 610.675C188.635 610.465 189.213 610.696 189.432 611.195L192.534 618.234C192.534 618.234 199.915 621.456 204.53 621.456C207.825 621.456 213.328 619.267 216.205 618.015Z" fill="#E4E4E4"/>
<rect width="89.2167" height="11.0255" rx="4" transform="matrix(-1 0 0 1 220.583 643.374)" fill="#2F3676"/>
<path d="M466.35 424.989C466.35 419.466 461.873 414.989 456.35 414.989H262.567C257.044 414.989 252.567 419.466 252.567 424.989V507.918H462.35C464.559 507.918 466.35 506.127 466.35 503.918V424.989Z" fill="#2F3676"/>
<path fill-rule="evenodd" clip-rule="evenodd" d="M269.4 414.989H259.81C254.954 414.989 250.8 418.477 249.961 423.26L212.167 638.649H230.154" fill="#2F3676"/>
<path fill-rule="evenodd" clip-rule="evenodd" d="M220.583 670.15C203.849 670.15 190.283 657.457 190.283 641.799C190.283 626.141 203.849 613.448 220.583 613.448C237.318 613.448 250.883 626.141 250.883 641.799C250.883 657.457 237.318 670.15 220.583 670.15Z" fill="#191847"/>
<path fill-rule="evenodd" clip-rule="evenodd" d="M316.533 547.295C316.533 613.406 373.811 667 444.467 667C515.122 667 572.4 613.406 572.4 547.295C572.4 481.183 515.122 427.589 444.467 427.589C373.811 427.589 316.533 481.183 316.533 547.295ZM340.1 547.295C340.1 601.228 386.827 644.949 444.467 644.949C502.107 644.949 548.833 601.228 548.833 547.295C548.833 493.362 502.107 449.64 444.467 449.64C386.827 449.64 340.1 493.362 340.1 547.295Z" fill="#191847"/>
<rect width="13.4667" height="207.909" transform="matrix(-1 0 0 1 451.2 443.34)" fill="#191847"/>
<rect width="13.0408" height="215.173" rx="2" transform="matrix(-0.730198 0.683236 0.730198 0.683236 370.668 469.333)" fill="#191847"/>
<rect width="12.6006" height="222.2" rx="2" transform="matrix(0 1 1 0 333.367 540.994)" fill="#191847"/>
<rect width="13.0408" height="215.173" rx="2" transform="matrix(0.730198 0.683236 0.730198 -0.683236 361.146 616.347)" fill="#191847"/>
<path fill-rule="evenodd" clip-rule="evenodd" d="M221.123 422.289L274.818 385.395L286.688 412.85L233.516 433.482C218.478 450.01 210.069 456.901 208.289 454.153C206.788 451.836 207.961 449.667 209.042 447.669C209.883 446.113 210.669 444.66 210.091 443.323C208.77 440.268 198.668 440.589 189.096 441.278C179.524 441.967 182.313 437.981 184.621 436.014C194.392 430.541 206.56 425.966 221.123 422.289ZM502.713 487.297C497.781 477.933 480.982 386.669 480.982 386.669L445.804 386.798C445.804 386.798 478.385 485.209 480.982 491.231C484.355 499.053 478.625 510.418 474.74 518.124C474.138 519.317 473.582 520.421 473.109 521.412C478.5 523.669 481.09 520.941 483.82 518.064C486.904 514.815 490.167 511.378 497.849 514.721C500.816 516.013 503.625 517.541 506.368 519.033C515.845 524.187 524.552 528.922 536.395 522.085C538.273 521.001 540.33 516.919 535.359 513.729C522.973 505.783 505.125 491.875 502.713 487.297Z" fill="#B28B67"/>
<path fill-rule="evenodd" clip-rule="evenodd" d="M381.013 248.554L366.457 246.218C312.45 289.872 290.268 373.736 224.069 418.162L240.002 436.642C354.846 423.337 383.311 321.043 381.013 248.554Z" fill="#E87613"/>
<path fill-rule="evenodd" clip-rule="evenodd" d="M444.467 419.714C444.467 419.714 356.92 419.714 315.672 419.714C309.787 419.714 310.896 411.762 311.747 407.75C321.566 361.442 359.894 311.525 359.894 245.607L397.044 240.156C427.772 286.397 438.399 343.33 444.467 419.714Z" fill="#DDE3E9"/>
<path fill-rule="evenodd" clip-rule="evenodd" d="M458.949 452.79C464.737 465.798 470.413 477.149 475.762 485.867H503.383C506.355 395.96 469.977 326.779 439.532 285.066C446.292 284.614 452.393 281.967 456.25 275.455C469.829 252.53 464.925 239.908 450.414 235.759C442.434 233.477 434.929 235.034 425.946 236.899C418.595 238.424 410.254 240.155 399.852 240.156C399.848 240.156 399.845 240.156 399.841 240.156C398.833 240.156 397.916 240.219 397.083 240.34L384.756 240.998C384.756 240.998 334.705 399.719 357.148 452.79H458.949Z" fill="#FF9B21"/>
<path fill-rule="evenodd" clip-rule="evenodd" d="M458.949 452.79C451.354 435.723 443.566 415.802 436.071 395.229C433.281 417.885 428.635 440.641 420.9 452.79H458.949Z" fill="black" fill-opacity="0.1"/>
</svg>
