<svg width="525" height="500" viewBox="0 0 704 658" fill="none" xmlns="http://www.w3.org/2000/svg">
<path fill-rule="evenodd" clip-rule="evenodd" d="M512.403 194.655C504.023 199.796 495.79 202.281 491.925 201.267C482.234 198.724 481.343 162.634 488.841 148.407C496.34 134.179 534.889 127.978 536.832 156.167C537.506 165.951 533.47 174.682 527.508 181.807L538.199 232.533H507.143L512.403 194.655Z" fill="#B28B67"/>
<path fill-rule="evenodd" clip-rule="evenodd" d="M550.371 146.783C551.374 145.771 551.922 144.327 552.395 142.956C552.886 141.531 553.364 140.092 553.69 138.609C554.343 135.646 554.349 132.239 552.272 129.938C550.607 128.094 548.109 127.266 545.803 127.086C544.266 126.966 542.689 127.185 541.216 127.678C539.755 128.167 538.495 129.142 537.079 129.746C537.025 126.554 536.487 123.213 534.896 120.487C533.365 117.864 530.924 116.392 528.143 116.002C525.29 115.603 522.472 116.282 519.917 117.689C519.278 118.041 518.644 118.41 518.038 118.827C517.53 119.177 517.002 119.598 516.406 119.74C515.742 119.899 515.413 119.509 514.981 119.015C514.475 118.437 513.905 117.928 513.302 117.476C510.634 115.48 507.134 114.659 504.043 115.856C502.619 116.407 501.234 117.343 500.268 118.633C499.406 119.783 498.792 121.608 497.603 122.409C497.099 122.749 496.743 122.299 496.284 121.965C495.594 121.465 494.936 120.913 494.238 120.426C493.257 119.742 492.195 119.231 491.058 118.963C489.393 118.571 487.093 118.663 486.617 120.882C486.438 121.716 486.575 122.607 486.633 123.447C486.712 124.6 486.795 125.753 486.893 126.905C486.968 127.779 487.063 128.624 487.225 129.482C487.311 129.94 487.582 130.793 487.389 131.252C487.148 131.825 486.036 131.499 485.561 131.519C484.622 131.558 483.68 131.726 482.812 132.134C482.14 132.45 481.433 132.916 481.149 133.7C480.975 134.182 481.021 134.677 481.103 135.173C481.202 135.768 481.089 136.084 481.015 136.684C479.755 136.052 475.387 134.649 474.838 136.948C474.655 137.714 475.071 138.579 475.389 139.224C475.947 140.357 476.678 141.392 477.425 142.379C478.984 144.438 480.844 146.214 482.847 147.733C480.501 148.795 479.889 151.926 481.919 153.792C482.816 154.615 484.022 154.799 485.153 154.746C485.567 154.727 486.164 154.565 486.49 154.638C486.665 154.678 486.853 154.829 487.095 154.846C488.692 154.957 490.494 154.566 492.054 154.205C494.835 153.563 497.467 152.222 499.617 150.179C500.168 149.655 500.624 149.354 501.366 149.361C502.017 149.368 502.655 149.55 503.305 149.566C505.024 149.611 506.574 148.755 508.171 148.186C508.269 150.382 508.883 152.8 509.765 154.775C510.485 156.386 511.987 156.62 513.464 156.761C518.185 157.213 522.923 156.709 527.65 156.715C523.074 157.768 518.345 158.202 513.81 159.441C511.76 160.001 513.325 161.408 514.202 162.383C515.645 163.988 516.718 165.978 517.463 168.074C519.701 165.103 523.658 163.146 527.163 164.059C531.037 165.067 533.764 170.399 531.287 174.232C529.849 176.457 527.253 177.316 525.092 178.272C526.778 180.056 527.185 182.691 528.2 184.91C528.7 186.005 529.402 187.242 530.521 187.623C530.935 187.765 531.421 187.777 531.747 188.12C532.152 188.545 532.248 189.021 532.765 189.387C534.827 190.846 538.047 190.733 539.875 188.829C541.527 187.107 541.097 184.382 539.717 182.636C541.914 181.704 545.917 180.505 545.043 177.021C549.804 176.699 561.362 168.84 554.973 163.097C558.48 161.079 561.701 156.149 559.449 151.803C557.714 148.457 553.681 146.961 550.371 146.783Z" fill="#191847"/>
<g clip-path="url(#clip0_2_685)">
<path fill-rule="evenodd" clip-rule="evenodd" d="M583.978 398.505H484.01L470.911 561.842H619.722L583.978 398.505Z" fill="#C5CFD6"/>
<path fill-rule="evenodd" clip-rule="evenodd" d="M583.978 398.505H553.232L534.83 561.842H619.722L583.978 398.505Z" fill="black" fill-opacity="0.1"/>
<path fill-rule="evenodd" clip-rule="evenodd" d="M429.084 430.865C440.318 455.117 457.872 513.99 457.872 513.99L442.969 520.92C442.969 520.92 405.157 459.035 382.048 416.73C383.125 426.254 384.221 436.976 385.238 448.247C387.646 474.948 385.239 532.635 383.944 549.298C383.13 559.771 369.15 557.577 367.846 549.271C367.624 547.864 366.724 542.925 365.38 535.556C358.789 499.422 341.541 404.851 341.51 381.695C341.498 372.377 359.38 364.007 370.039 370.522C377.36 362.569 391.216 357.986 399.176 371.122C404.237 379.473 416.261 403.181 429.084 430.865Z" fill="#B28B67"/>
<path fill-rule="evenodd" clip-rule="evenodd" d="M456.806 492.194L405.657 368.85C393.404 348.785 359.049 372.933 363.228 384.571C372.714 410.991 420.963 496.526 423.789 504.397L456.806 492.194Z" fill="#1F28CF"/>
<path fill-rule="evenodd" clip-rule="evenodd" d="M456.192 506.236C456.873 505.268 458.213 505.036 459.108 505.79C461.211 507.562 464.677 510.658 465.865 512.754C467.615 515.839 469.963 522.353 469.963 522.353C466.446 524.419 406.756 559.5 406.756 559.5C406.756 559.5 399.59 552.657 404.523 548.876C409.457 545.095 412.665 542.499 412.665 542.499L434.659 511.652C434.99 511.189 435.631 511.093 436.074 511.44L440.851 515.184C440.851 515.184 447.089 514.63 450.161 512.825C452.195 511.629 454.718 508.33 456.192 506.236Z" fill="#E4E4E4"/>
<path fill-rule="evenodd" clip-rule="evenodd" d="M384.193 540.885C385.267 540.39 386.554 540.871 386.959 541.981C387.91 544.587 389.388 549.026 389.388 551.443C389.388 555.006 388.222 561.842 388.222 561.842C384.162 561.842 315.238 561.842 315.238 561.842C315.238 561.842 312.393 552.268 318.522 551.504C324.652 550.741 328.706 550.126 328.706 550.126L362.895 534.611C363.413 534.376 364.022 534.619 364.235 535.146L366.532 540.817C366.532 540.817 372.206 543.512 375.754 543.512C378.095 543.512 381.886 541.948 384.193 540.885Z" fill="#E4E4E4"/>
<path fill-rule="evenodd" clip-rule="evenodd" d="M337.925 391.172C337.925 426.167 354.251 507.796 354.262 515.502L389.388 515.529C389.388 515.529 381.676 406.273 383.919 405.096C386.162 403.919 475.859 414.213 502.761 414.213C541.553 414.213 557.601 389.311 558.903 343.181H482.057C466.41 344.885 384.796 361.642 354.486 367.403C341.51 369.869 337.925 381.532 337.925 391.172Z" fill="#2B44FF"/>
</g>
<path fill-rule="evenodd" clip-rule="evenodd" d="M442.793 359.335C467.368 411.435 570.819 376.256 570.819 376.256C570.819 367.229 567.302 358.178 563.607 348.672C559.646 338.479 555.482 327.764 555.233 315.994C554.774 294.339 550.797 228.73 534.196 206.566C533.894 205.565 533.588 204.561 533.276 203.554L532.127 204.104C531.948 203.916 531.767 203.732 531.585 203.554L495.366 209.255C495.366 225.932 484.882 241.745 475.444 255.98C473.148 259.444 470.913 262.814 468.907 266.081C466.279 270.359 463.313 274.714 460.274 279.177C444.882 301.779 427.609 327.144 442.793 359.335Z" fill="#C1DEE2"/>
<path fill-rule="evenodd" clip-rule="evenodd" d="M489.204 349.487C486.782 336.762 485.211 328.267 484.49 324.001C465.194 346.197 454.046 357.424 451.047 357.682C445.407 358.166 441.24 353.075 440.053 354.506C438.092 360.434 443.632 375.271 454.22 377.429C459.277 378.459 467.101 367.845 470.325 364.084C471.593 362.605 477.886 357.739 489.204 349.487H489.204ZM455.873 281.643C450.871 281.643 448.184 283.748 445.226 287.995C442.269 292.242 439.47 312.272 444.219 312.272C448.967 312.272 468.862 304.529 468.862 299.324C468.862 294.118 455.287 291.914 455.287 287.995C455.287 284.076 460.875 281.643 455.873 281.643Z" fill="#B28B67"/>
<path fill-rule="evenodd" clip-rule="evenodd" d="M540.056 228.211C552.76 282.128 547.584 327.602 499.304 368.85C499.871 370.922 500.211 372.16 500.211 372.16C556.884 331.84 556.911 282.979 540.056 228.211Z" fill="black" fill-opacity="0.2"/>
<path fill-rule="evenodd" clip-rule="evenodd" d="M212.16 109.192C220.552 114.337 228.798 116.823 232.668 115.808C242.374 113.264 243.266 77.1459 235.756 62.9071C228.247 48.6684 189.641 42.4622 187.695 70.6737C187.02 80.465 191.061 89.2031 197.033 96.3333L186.325 147.099H217.428L212.16 109.192Z" fill="#B28B67"/>
<path fill-rule="evenodd" clip-rule="evenodd" d="M218.029 46.4965C213.93 45.8127 202.892 45.3425 200.857 45.3428C199.556 45.3428 198.147 45.6451 197.376 44.4302C196.745 43.4353 196.976 41.7526 196.788 40.5981C196.57 39.2569 196.259 37.9329 195.945 36.6124C195.051 32.8546 193.699 29.2796 191.808 25.923C188.26 19.6258 183.061 14.6932 176.498 11.8229C169.251 8.65361 161.05 7.92792 153.254 8.57076C144.912 9.25851 137.36 12.0599 129.483 14.6962C121.978 17.2084 114.116 18.1972 106.266 16.9704C98.356 15.7345 92.3796 11.3737 85.7081 7.2347C78.8783 2.9974 71.0731 0.226046 62.9991 0.863114C55.4623 1.45799 48.5159 4.62361 42.2837 8.85241C36.4527 12.809 31.6414 17.5692 28.9251 24.2689C26.0029 31.4758 26.0056 39.3865 30.811 45.7556C37.7761 54.9878 50.7066 57.3752 61.4643 57.1379C67.6867 57.001 73.7978 55.8455 79.6725 53.7437C87.5071 50.9405 94.2774 46.1893 101.607 42.3344C105.047 40.5255 108.602 39.0398 112.329 37.9697C115.945 36.9308 119.507 36.4542 122.782 38.6765C126.245 41.0275 129.349 43.3369 133.312 44.8087C137.113 46.2206 141.14 47.0103 145.19 46.9785C153.07 46.9165 160.838 44.419 168.492 42.746C174.733 41.382 181.411 40.0226 187.773 41.3338C190.428 41.881 194.307 43.0107 195.266 45.8175C179.126 48.7931 172.787 69.098 177.337 84.0037C179.792 92.0488 194.554 101.454 200.294 97.2241C203.93 94.5446 201.723 91.0269 200.294 88.7047C197.558 84.2577 196.622 78.5453 201.685 75.4492C206.051 72.779 210.643 79.1202 210.73 79.1132C211.93 79.017 222.301 73.0507 229.446 64.3443C236.495 64.7694 237.565 60.0413 235.882 56.1747C234.198 52.3081 223.693 47.4419 218.029 46.4965Z" fill="#191847"/>
<path fill-rule="evenodd" clip-rule="evenodd" d="M165.633 258.42L214.327 420.673L237.916 558.66H256.411L231.486 258.42H165.633Z" fill="#997659"/>
<path fill-rule="evenodd" clip-rule="evenodd" d="M148.213 258.42C151.52 347.506 147.628 393.458 146.887 401.552C146.147 409.645 136.011 462.126 112.014 561.377L131.722 554.478C169.647 463.451 182.57 416.142 186.92 404.189C191.269 392.236 202.822 343.646 221.577 258.42H148.213Z" fill="#B28B67"/>
<path fill-rule="evenodd" clip-rule="evenodd" d="M115.187 552.648C114.113 552.153 112.824 552.634 112.42 553.745C111.469 556.354 109.991 560.799 109.991 563.219C109.991 566.787 111.157 573.631 111.157 573.631C115.217 573.631 184.141 573.631 184.141 573.631C184.141 573.631 186.986 564.045 180.857 563.281C174.727 562.517 170.673 561.901 170.673 561.901L136.484 546.366C135.966 546.131 135.357 546.374 135.144 546.902L132.847 552.58C132.847 552.58 127.173 555.278 123.625 555.278C121.284 555.278 117.494 553.713 115.187 552.648Z" fill="#E4E4E4"/>
<path fill-rule="evenodd" clip-rule="evenodd" d="M236.824 552.648C235.75 552.153 234.461 552.634 234.056 553.745C233.105 556.354 231.627 560.799 231.627 563.219C231.627 566.787 232.793 573.631 232.793 573.631C236.854 573.631 305.778 573.631 305.778 573.631C305.778 573.631 308.623 564.045 302.493 563.281C296.364 562.517 292.31 561.901 292.31 561.901L258.121 546.366C257.603 546.131 256.993 546.374 256.78 546.902L254.483 552.58C254.483 552.58 248.809 555.278 245.262 555.278C242.921 555.278 239.131 553.713 236.824 552.648Z" fill="#E4E4E4"/>
<path fill-rule="evenodd" clip-rule="evenodd" d="M159.163 258.42L179.867 341.086H243.105L233.676 258.42H159.163Z" fill="#69A1AC"/>
<path fill-rule="evenodd" clip-rule="evenodd" d="M147.517 258.42C137.298 289.638 143.635 341.086 143.635 341.086H208.167L225.912 258.42H147.517Z" fill="#89C5CC"/>
<path fill-rule="evenodd" clip-rule="evenodd" d="M77.1023 299.999C81.9334 292.789 114.498 195.77 114.498 195.77L142.585 199.895C142.585 199.895 95.8883 300.923 93.2203 305.622C89.7545 311.726 92.8238 321.753 94.905 328.552C95.227 329.604 95.5253 330.578 95.7721 331.449C91.4041 332.729 89.7416 330.19 87.9889 327.512C86.0093 324.488 83.9147 321.289 77.6764 323.218C75.2663 323.963 72.9508 324.921 70.6886 325.856C62.8744 329.088 55.6958 332.056 47.4483 325.108C46.1408 324.007 45.0387 320.406 49.1933 318.309C59.5439 313.084 74.7405 303.523 77.1023 299.999ZM319.143 294.985L287.764 253.776L272.759 273.265L307.435 301.301C314.819 317.817 319.481 325.164 321.421 323.342C323.057 321.804 322.68 319.81 322.333 317.972C322.062 316.541 321.81 315.205 322.541 314.255C324.211 312.087 331.614 314.524 338.542 317.141C345.47 319.759 344.308 315.957 343.046 313.879C337.055 307.377 329.087 301.079 319.143 294.985Z" fill="#B28B67"/>
<path fill-rule="evenodd" clip-rule="evenodd" d="M211.311 127.066L222.675 126.72C231.487 191.966 315.395 247.578 317.668 271.822C318.502 280.713 311.804 284.19 314.592 287.261L298.686 295.92C296.644 292.677 290.7 297.225 280.326 291.967C269.953 286.708 201.046 201.364 211.311 127.066Z" fill="#DB2721"/>
<path fill-rule="evenodd" clip-rule="evenodd" d="M192.225 110.894C190.065 110.427 187.947 111.801 187.495 113.963L185.657 122.755C162.518 136.089 104.02 177.454 77.9901 266.305C75.2558 275.638 77.1124 281.112 78.5959 285.486C79.6107 288.478 80.4509 290.955 79.5274 293.8L97.6734 301.79C97.9713 299.634 100.577 298.334 103.939 296.657C108.827 294.219 115.313 290.983 118.628 283.158C121.769 275.741 126.14 266.541 131.252 256.342C129.634 270.586 130.481 284.019 134.763 295.657C145.444 324.693 232.794 307.013 245.295 280.737C251.966 266.716 247.083 253.446 240.624 235.895C232.426 213.616 221.69 184.441 228.825 138.077L231.862 123.55C232.314 121.388 230.93 119.258 228.77 118.791L192.225 110.894Z" fill="#FF4133"/>
<defs>
<clipPath id="clip0_2_685">
<rect width="388.202" height="314.819" fill="white" transform="matrix(-1 0 0 1 703.832 343.181)"/>
</clipPath>
</defs>
</svg>
